<svg width="34" height="26" viewBox="0 0 34 26" fill="none" xmlns="http://www.w3.org/2000/svg">
<path d="M11.4902 4.5C12.0767 4.50006 12.6318 4.63584 13.1416 4.9375C13.6303 5.22671 14.0483 5.61887 14.3223 6.14258L14.3271 6.15137L22.2246 22.0088L22.2314 22.0205L22.2363 22.0332C22.3904 22.391 22.5 22.7539 22.5 23.1221C22.5 23.8109 22.1972 24.3923 21.6504 24.8438C21.116 25.285 20.5171 25.5 19.833 25.5C19.3801 25.5 18.9265 25.3795 18.5234 25.1387C18.1088 24.8909 17.7803 24.5226 17.5586 24.0518L16.1348 21.0469H6.88477L5.46191 24.0527L5.46094 24.0518C5.24541 24.5093 4.94231 24.8843 4.5166 25.1387C4.11365 25.3794 3.68076 25.4999 3.1875 25.5C2.50793 25.5 1.88749 25.2879 1.34961 24.8438C0.80282 24.3923 0.500029 23.8109 0.5 23.1221C0.5 22.7718 0.609578 22.3854 0.793945 22.0107L0.795898 22.0088L8.69336 6.15137L8.79688 5.95996C9.05006 5.52396 9.39539 5.15895 9.88184 4.90527V4.90625C10.3802 4.63575 10.9256 4.5 11.4902 4.5ZM8.89648 16.7168H14.1279L11.5273 11.1348L8.89648 16.7168Z" fill="#50525D" stroke="#50525D" stroke-miterlimit="10"/>
<path d="M25.9316 8.5293C28.9311 8.52942 31.3945 10.932 31.3945 13.8975C31.3944 16.8748 28.9432 19.2645 25.9316 19.2646C22.9199 19.2646 20.4689 16.8749 20.4688 13.8975C20.4688 10.9199 22.9198 8.5293 25.9316 8.5293Z" fill="#B7D9EC" stroke="white"/>
<path d="M23.4189 0.5C25.5729 0.500118 27.3379 2.2174 27.3379 4.35352C27.3378 6.48959 25.5729 8.20691 23.4189 8.20703C21.2649 8.20703 19.5 6.48966 19.5 4.35352C19.5 2.21733 21.2649 0.5 23.4189 0.5Z" fill="#AED5CD" stroke="white"/>
<path d="M30.7695 3.78125C32.2599 3.78143 33.499 4.96796 33.499 6.46875C33.499 7.96956 32.2599 9.15607 30.7695 9.15625C29.2772 9.15625 28.0391 7.95588 28.0391 6.46875C28.0391 4.96785 29.279 3.78125 30.7695 3.78125Z" fill="#CDB5E7" stroke="white"/>
</svg>
