<?xml version="1.0" standalone="no"?>
<!DOCTYPE svg PUBLIC "-//W3C//DTD SVG 20010904//EN"
 "http://www.w3.org/TR/2001/REC-SVG-20010904/DTD/svg10.dtd">
<svg version="1.0" xmlns="http://www.w3.org/2000/svg"
 width="2432.000000pt" height="2432.000000pt" viewBox="0 0 2432.000000 2432.000000"
 preserveAspectRatio="xMidYMid meet">
<metadata>
Created by potrace 1.14, written by Peter Selinger 2001-2017
</metadata>
<g transform="translate(0.000000,2432.000000) scale(0.100000,-0.100000)"
fill="#000000" stroke="none">
<path d="M20278 16956 c-1 -2 -39 -7 -83 -10 -44 -4 -96 -9 -115 -12 -19 -2
-56 -6 -83 -9 -26 -2 -51 -6 -56 -9 -5 -3 -28 -8 -52 -10 -24 -3 -55 -7 -69
-10 -14 -4 -36 -8 -50 -11 -57 -11 -78 -16 -135 -30 -33 -9 -64 -17 -70 -19
-5 -1 -30 -8 -55 -15 -25 -7 -73 -21 -108 -32 -34 -12 -68 -22 -75 -23 -7 -1
-28 -9 -47 -18 -19 -8 -53 -21 -75 -28 -22 -7 -46 -17 -52 -23 -7 -5 -13 -6
-13 -3 0 4 -12 1 -27 -8 -16 -8 -50 -24 -78 -36 -125 -56 -161 -73 -167 -84
-4 -6 -8 -7 -8 -3 0 7 -51 -19 -175 -87 -10 -6 -25 -17 -33 -24 -7 -7 -18 -10
-23 -7 -5 4 -9 2 -9 -2 0 -5 -29 -26 -64 -46 -35 -21 -74 -46 -86 -57 -13 -11
-29 -20 -35 -20 -7 0 -15 -7 -19 -15 -3 -8 -12 -15 -20 -15 -8 0 -16 -3 -18
-8 -1 -4 -28 -25 -58 -47 -99 -71 -241 -196 -352 -306 -59 -60 -108 -111 -108
-114 0 -2 -15 -19 -32 -37 -18 -18 -51 -57 -73 -86 -21 -28 -43 -52 -47 -52
-4 0 -8 -7 -8 -15 0 -9 -7 -18 -15 -21 -8 -4 -15 -12 -15 -20 0 -7 -6 -17 -12
-21 -7 -4 -17 -15 -23 -24 -5 -9 -36 -55 -67 -102 -32 -47 -58 -91 -58 -96 0
-6 -4 -11 -9 -11 -5 0 -15 -12 -22 -27 -8 -16 -43 -82 -79 -148 -36 -66 -65
-122 -65 -125 -1 -3 -14 -32 -29 -65 -16 -33 -29 -66 -29 -72 0 -7 -4 -13 -9
-13 -4 0 -8 -7 -8 -15 0 -8 -4 -23 -9 -33 -14 -25 -60 -147 -64 -168 -2 -11
-8 -30 -14 -44 -16 -37 -29 -84 -58 -200 -27 -104 -31 -122 -40 -170 -3 -14
-7 -36 -10 -50 -3 -14 -8 -45 -12 -70 -6 -51 -11 -75 -13 -75 -1 0 -3 -16 -4
-35 -2 -19 -6 -64 -10 -100 -14 -133 -17 -210 -16 -405 1 -255 4 -325 10 -325
3 0 6 -15 6 -32 1 -37 12 -173 14 -173 1 0 4 -19 14 -95 3 -25 9 -61 12 -80 4
-19 8 -44 9 -55 1 -11 3 -20 4 -20 1 0 4 -16 7 -35 4 -35 28 -164 39 -210 3
-14 8 -34 9 -45 2 -11 8 -39 14 -62 5 -24 8 -43 6 -43 -3 0 0 -8 5 -17 5 -10
11 -31 14 -48 3 -16 15 -68 27 -115 12 -47 23 -92 25 -101 4 -18 40 -147 54
-194 5 -16 19 -66 31 -110 12 -44 24 -87 27 -95 3 -8 8 -24 10 -35 2 -11 10
-37 18 -57 8 -21 12 -38 9 -38 -4 0 -1 -7 6 -15 7 -8 10 -15 6 -15 -3 0 -1
-12 5 -27 6 -16 17 -50 24 -78 39 -140 76 -272 82 -285 3 -8 5 -19 4 -24 -1
-4 3 -14 9 -20 5 -7 7 -16 4 -19 -3 -3 -2 -12 2 -19 5 -7 9 -17 10 -23 1 -5
19 -73 39 -150 21 -77 39 -147 40 -155 2 -8 4 -17 5 -20 1 -3 2 -8 1 -12 0 -4
4 -19 10 -34 10 -27 12 -40 24 -119 3 -22 9 -47 12 -55 3 -8 7 -24 9 -35 2
-11 5 -33 8 -50 2 -16 7 -52 11 -80 3 -27 8 -57 11 -65 3 -8 8 -75 11 -150 9
-213 -26 -353 -116 -472 -20 -26 -44 -50 -54 -54 -10 -3 -16 -8 -13 -11 14
-15 -281 -192 -321 -193 -6 0 -13 -3 -15 -8 -3 -8 -122 -47 -178 -58 -39 -8
-135 -8 -192 0 -45 6 -188 65 -188 77 0 5 -5 9 -11 9 -13 0 -83 48 -134 92
-93 80 -344 344 -354 372 -2 6 -10 16 -17 21 -11 9 -58 64 -120 140 -13 17
-36 44 -50 60 -14 17 -55 68 -92 115 -36 47 -69 87 -72 90 -4 4 -52 62 -110
133 -8 10 -22 27 -30 37 -8 9 -31 36 -50 60 -19 23 -44 52 -55 64 -11 12 -49
55 -85 96 -66 77 -323 337 -395 400 -22 20 -78 66 -125 103 -47 37 -92 74
-101 82 -9 8 -21 15 -27 15 -5 0 -12 4 -14 8 -3 9 -172 124 -198 135 -8 4 -33
18 -55 31 -122 76 -422 201 -529 222 -10 2 -33 8 -50 13 -17 5 -49 13 -71 17
-22 4 -47 9 -55 10 -8 2 -37 7 -65 10 -27 4 -52 8 -55 9 -11 7 -218 19 -310
18 -149 -1 -412 -27 -471 -47 -8 -3 -30 -7 -50 -10 -20 -3 -42 -8 -50 -10 -8
-3 -25 -7 -39 -10 -14 -2 -81 -21 -150 -41 -69 -20 -129 -38 -135 -39 -5 -2
-17 -6 -25 -9 -8 -4 -42 -16 -75 -27 -159 -56 -178 -64 -327 -134 -54 -25 -98
-42 -98 -38 0 4 -4 3 -8 -3 -4 -5 -63 -39 -132 -74 -69 -35 -127 -67 -130 -70
-3 -3 -25 -17 -50 -30 -25 -13 -52 -30 -61 -37 -8 -8 -21 -14 -27 -14 -6 0
-17 -6 -24 -12 -19 -18 -76 -58 -83 -58 -3 0 -60 -39 -126 -87 -67 -49 -128
-92 -137 -98 -8 -5 -23 -17 -32 -25 -10 -8 -46 -37 -81 -65 -35 -27 -69 -54
-76 -60 -6 -5 -30 -25 -52 -44 -22 -18 -54 -45 -69 -60 -16 -14 -68 -62 -117
-106 -82 -74 -397 -385 -390 -385 2 0 -22 -26 -53 -59 -53 -54 -119 -126 -224
-245 -23 -27 -54 -61 -67 -75 -12 -14 -39 -46 -60 -70 -20 -24 -45 -53 -56
-65 -11 -12 -45 -51 -75 -85 -30 -35 -75 -86 -100 -114 -25 -27 -53 -59 -63
-71 -133 -155 -428 -453 -527 -532 -41 -32 -77 -61 -80 -64 -16 -16 -145 -80
-170 -85 -11 -2 -24 -6 -29 -9 -10 -6 -103 -8 -136 -3 -46 8 -113 33 -158 59
-26 15 -47 25 -47 22 0 -3 -13 4 -29 15 -16 12 -32 21 -35 21 -8 0 -55 39 -95
80 -33 34 -76 113 -87 162 -13 56 -7 247 11 328 3 14 7 37 10 52 2 15 6 36 10
47 3 11 8 28 10 38 16 74 59 220 67 231 6 6 8 12 5 12 -5 0 61 208 80 250 3 8
7 22 9 30 2 8 26 76 54 150 28 74 53 143 55 153 2 9 7 23 12 30 4 6 8 18 9 25
2 8 6 21 10 30 4 9 8 19 9 22 6 16 19 49 31 77 8 17 14 37 14 45 0 8 4 18 8
23 5 6 19 39 31 75 13 36 29 79 36 95 7 17 25 66 40 110 15 44 31 86 37 92 6
7 8 13 5 13 -3 0 5 27 18 60 13 33 21 60 19 60 -2 0 2 14 11 30 9 17 13 30 9
30 -4 0 -2 6 4 13 6 6 18 39 27 72 18 67 20 74 27 95 21 62 78 266 82 295 2
11 9 39 15 63 7 24 14 55 16 70 2 15 7 38 10 52 3 14 7 39 10 55 3 17 7 41 10
55 2 14 7 45 10 70 4 25 8 56 10 70 14 98 18 167 19 325 1 189 -6 303 -27 420
-3 17 -9 50 -12 75 -4 25 -10 49 -13 55 -3 5 -7 16 -8 25 -4 40 -58 210 -90
285 -10 22 -18 42 -19 45 -2 12 -69 146 -75 150 -3 3 -9 13 -13 23 -7 19 -117
189 -127 197 -4 3 -11 12 -16 21 -25 45 -237 270 -315 335 -40 33 -123 97
-153 119 -16 11 -34 26 -41 33 -8 6 -16 12 -20 12 -3 0 -11 5 -18 10 -18 15
-135 89 -182 115 -130 71 -215 115 -215 110 0 -3 -17 5 -37 18 -21 13 -65 34
-98 46 -33 12 -71 28 -85 35 -14 7 -61 26 -105 41 -44 16 -84 32 -90 36 -5 4
-35 14 -65 22 -30 9 -80 23 -110 32 -90 26 -94 27 -127 32 -18 3 -33 8 -33 12
0 4 -10 7 -22 8 -13 1 -34 4 -48 7 -32 9 -153 32 -205 41 -74 12 -124 17 -265
31 -124 13 -468 6 -575 -10 -16 -3 -49 -7 -73 -10 -65 -8 -254 -42 -259 -46
-2 -2 -12 -3 -22 -4 -11 0 -23 -4 -27 -8 -4 -5 -19 -8 -34 -8 -15 0 -30 -3
-34 -7 -4 -5 -15 -8 -24 -9 -10 0 -48 -10 -87 -22 -38 -12 -73 -22 -77 -22 -4
-1 -31 -11 -60 -22 -29 -11 -84 -30 -122 -44 -38 -13 -75 -29 -84 -36 -8 -7
-18 -12 -21 -10 -10 4 -101 -32 -101 -40 0 -4 -5 -8 -12 -8 -17 0 -152 -63
-160 -75 -4 -5 -8 -7 -8 -2 0 4 -11 0 -25 -9 -14 -9 -25 -12 -25 -8 0 5 -4 4
-8 -2 -4 -6 -20 -17 -37 -25 -60 -30 -192 -103 -279 -156 -49 -29 -91 -53 -93
-53 -2 0 -19 -11 -37 -25 -18 -14 -38 -25 -44 -25 -7 0 -12 -4 -12 -8 0 -5
-10 -13 -23 -19 -32 -15 -351 -233 -359 -247 -4 -6 -8 -7 -8 -1 0 6 -3 6 -8 0
-4 -6 -23 -22 -42 -35 -19 -13 -39 -30 -43 -37 -4 -7 -12 -13 -17 -13 -7 0
-97 -64 -160 -113 -8 -7 -44 -35 -80 -62 -36 -27 -67 -53 -68 -57 -2 -4 -10
-8 -17 -8 -7 0 -15 -4 -17 -8 -1 -4 -55 -48 -118 -97 -63 -49 -119 -93 -125
-97 -120 -96 -175 -138 -181 -138 -4 0 -14 -8 -23 -18 -9 -10 -32 -29 -51 -42
-19 -14 -44 -33 -55 -43 -24 -22 -201 -158 -224 -172 -9 -5 -18 -12 -21 -16
-3 -3 -23 -18 -45 -35 -22 -16 -44 -33 -50 -37 -5 -5 -95 -69 -200 -143 -104
-74 -195 -139 -202 -144 -7 -6 -16 -10 -20 -10 -4 0 -21 -11 -37 -25 -16 -14
-35 -25 -42 -25 -7 0 -17 -6 -21 -14 -4 -8 -12 -15 -18 -17 -5 -1 -32 -16 -60
-33 -124 -80 -251 -150 -405 -226 -58 -28 -112 -56 -120 -61 -8 -5 -22 -12
-30 -15 -8 -3 -31 -13 -50 -22 -40 -18 -96 -39 -230 -88 -52 -19 -102 -37
-110 -41 -8 -3 -22 -7 -30 -8 -8 -1 -58 -14 -110 -29 -95 -28 -137 -37 -177
-40 -13 0 -23 -4 -23 -7 0 -3 -6 -6 -12 -6 -7 -1 -33 -4 -58 -8 -25 -4 -56 -9
-70 -11 -48 -7 -143 -17 -179 -18 -20 -1 -41 -4 -46 -7 -6 -2 -49 -4 -97 -4
l-88 0 0 -643 0 -644 148 6 c171 6 295 16 397 31 22 4 54 9 70 11 56 8 170 29
215 39 14 4 36 8 50 11 26 5 78 16 95 20 6 2 19 5 30 7 45 11 243 69 278 82
20 8 37 12 37 9 0 -4 6 -2 13 4 6 6 14 10 17 10 5 1 53 18 80 29 8 3 20 7 25
8 10 1 26 8 85 33 19 9 40 16 45 17 6 1 24 8 40 15 37 16 114 51 180 80 136
61 402 199 492 256 28 18 54 30 57 27 3 -4 6 -1 6 5 0 7 4 12 9 12 11 0 261
157 376 235 249 170 223 151 270 190 17 14 33 25 37 25 4 0 13 6 20 13 7 6 29
23 48 37 19 13 40 28 45 32 6 5 78 59 160 121 83 62 186 141 230 175 44 34 89
70 100 78 11 8 34 26 50 39 17 13 80 62 140 109 61 47 125 98 144 113 19 16
50 39 70 53 20 14 43 33 52 43 9 9 19 17 23 17 5 0 23 14 60 45 6 6 27 21 46
35 19 13 40 28 45 32 6 5 28 22 50 38 22 16 45 33 50 38 43 34 258 182 265
182 4 0 10 4 12 9 4 11 235 161 248 161 5 0 10 5 10 10 0 6 7 10 15 10 8 0 15
5 15 10 0 6 5 10 10 10 6 0 27 11 48 23 86 55 350 190 369 190 7 0 13 4 13 8
0 3 8 9 17 12 10 3 72 26 138 51 66 26 129 48 140 51 11 2 47 12 80 21 33 9
69 18 80 20 11 2 34 7 50 11 17 4 38 8 48 9 9 1 18 2 20 4 10 9 217 24 322 24
92 -1 213 -9 275 -18 66 -10 106 -18 122 -22 9 -3 27 -7 40 -9 22 -4 100 -23
126 -31 7 -2 13 -3 15 -3 13 0 221 -78 284 -107 17 -8 35 -14 39 -14 14 0 229
-112 232 -121 2 -5 12 -9 23 -9 10 0 19 -4 19 -10 0 -5 5 -10 11 -10 10 0 109
-71 149 -106 116 -103 176 -187 225 -318 21 -55 26 -77 41 -166 5 -32 5 -224
-1 -270 -11 -102 -34 -238 -42 -260 -8 -19 -7 -17 -17 -65 -4 -22 -23 -94 -43
-160 -19 -66 -38 -132 -40 -147 -3 -16 -9 -28 -12 -28 -4 0 -8 -6 -9 -12 -1
-24 -11 -54 -72 -228 -34 -96 -63 -179 -64 -185 -1 -5 -6 -17 -11 -25 -5 -8
-10 -19 -11 -25 -2 -9 -133 -361 -151 -405 -3 -8 -7 -17 -8 -20 -1 -3 -4 -12
-8 -20 -25 -64 -135 -375 -142 -400 -13 -50 -75 -252 -79 -259 -3 -4 -7 -18
-9 -32 -3 -13 -10 -44 -17 -69 -7 -25 -14 -54 -16 -65 -2 -11 -6 -31 -10 -45
-20 -86 -46 -216 -49 -245 -1 -5 -5 -32 -9 -60 -15 -105 -16 -122 -21 -203 -2
-45 -5 -85 -7 -90 -11 -22 5 -323 22 -407 5 -27 11 -61 14 -75 2 -14 12 -54
21 -90 9 -36 18 -69 19 -75 1 -5 4 -14 7 -20 4 -5 12 -28 19 -50 18 -57 110
-246 132 -269 10 -11 18 -25 18 -31 0 -7 9 -20 20 -30 11 -10 20 -22 20 -26 0
-21 175 -211 261 -284 69 -59 145 -115 156 -115 6 0 13 -4 15 -8 5 -12 85 -65
158 -103 36 -19 67 -36 70 -39 13 -13 226 -110 241 -110 6 0 29 -9 51 -20 23
-11 43 -18 46 -16 2 3 16 0 31 -6 14 -6 35 -12 46 -14 29 -5 60 -12 60 -14 0
-2 24 -6 140 -24 89 -14 342 -14 415 -1 206 38 352 87 525 178 33 17 70 36 82
42 13 5 23 13 23 18 0 4 4 7 10 7 5 0 59 33 119 74 99 68 132 92 165 121 6 6
33 28 60 50 135 109 403 375 586 583 30 35 72 81 93 102 20 22 37 42 37 45 0
2 12 17 27 33 16 16 42 45 58 64 54 62 133 152 157 179 12 14 38 44 57 65 53
61 181 201 236 259 28 29 71 74 96 101 104 110 348 339 433 405 16 13 45 38
65 56 20 18 39 33 44 33 4 0 16 9 27 20 11 11 75 58 142 105 68 47 128 88 134
92 5 5 19 13 30 19 55 31 69 40 82 52 7 6 20 12 27 12 7 0 20 6 27 13 17 17
266 138 348 169 36 14 74 29 85 33 11 5 22 9 25 10 3 1 57 18 121 39 64 20
130 39 145 41 16 2 29 4 29 5 0 2 11 4 60 14 59 12 152 19 250 18 84 -1 160
-6 160 -12 0 -1 14 -3 30 -5 17 -2 41 -7 55 -11 14 -4 27 -8 30 -9 71 -18 222
-83 228 -97 2 -5 8 -8 13 -8 13 0 123 -70 127 -81 2 -5 8 -9 14 -9 5 0 15 -6
23 -12 7 -7 25 -22 41 -33 72 -52 264 -239 374 -364 30 -34 64 -73 75 -85 11
-12 38 -44 60 -71 22 -26 49 -58 60 -71 12 -12 32 -37 45 -55 28 -37 72 -92
80 -99 12 -12 67 -80 85 -106 11 -15 27 -35 35 -44 8 -8 33 -38 55 -65 22 -28
45 -55 50 -61 6 -7 26 -31 44 -54 19 -23 40 -48 45 -54 6 -6 40 -45 76 -86
173 -198 325 -347 500 -488 52 -42 97 -80 100 -83 3 -3 10 -8 15 -10 6 -2 49
-30 97 -62 47 -31 110 -70 140 -85 29 -16 64 -35 78 -42 14 -8 27 -15 30 -15
3 -1 16 -7 30 -13 101 -43 179 -74 214 -83 66 -18 158 -39 191 -44 11 -1 38
-6 60 -10 112 -19 345 -20 450 -2 17 3 50 8 75 11 25 3 60 10 78 15 18 5 35
10 37 10 3 1 6 1 8 2 1 0 12 2 23 4 26 5 182 53 209 64 107 45 161 65 168 63
4 -1 7 3 7 9 0 5 5 7 10 4 6 -3 10 -1 10 4 0 6 3 10 8 9 10 -2 164 74 180 90
7 6 20 12 28 12 8 0 14 3 14 8 0 8 26 23 73 42 15 7 27 15 27 19 0 4 11 13 24
19 48 21 235 172 323 258 49 49 117 125 151 169 35 44 67 86 73 93 17 20 111
189 138 247 38 81 44 96 56 140 4 17 11 35 15 40 5 8 37 124 45 165 1 3 4 19
8 35 12 49 17 77 23 130 4 28 10 72 14 98 8 51 6 447 -3 532 -9 89 -24 209
-32 260 -13 73 -31 169 -51 260 -2 11 -7 34 -10 50 -2 17 -10 48 -16 70 -6 22
-11 48 -10 57 0 10 -3 20 -8 23 -5 3 -7 12 -3 20 3 8 1 15 -3 15 -5 0 -10 11
-10 25 -1 14 -5 33 -9 43 -4 9 -9 24 -10 32 -1 8 -10 42 -19 75 -10 33 -18 70
-19 83 -1 12 -4 22 -7 22 -4 0 -7 6 -8 13 0 6 -6 30 -12 52 -6 22 -13 47 -15
55 -2 8 -4 16 -5 18 -2 1 -3 5 -4 10 -1 4 -10 34 -20 67 -10 33 -20 67 -21 75
-2 8 -29 98 -59 200 -31 102 -57 195 -58 208 -1 12 -6 22 -10 22 -4 0 -8 14
-8 30 0 17 -5 30 -12 30 -6 0 -9 3 -6 6 4 3 -2 36 -13 72 -17 60 -47 174 -53
205 -2 7 -6 19 -9 27 -6 13 -62 251 -73 305 -2 11 -8 40 -14 65 -6 25 -12 59
-14 75 -3 17 -7 41 -10 55 -37 184 -60 418 -59 625 0 181 8 269 39 445 6 39
42 177 51 200 3 8 7 22 9 31 2 9 12 36 23 62 11 25 17 48 14 51 -4 3 -2 6 4 6
5 0 10 6 10 13 1 17 71 166 94 198 10 14 16 28 13 31 -2 3 2 11 11 18 8 7 15
17 15 22 0 12 106 171 135 203 6 7 21 26 35 44 40 52 210 223 270 271 30 25
57 47 60 50 3 3 25 19 50 35 25 16 47 32 50 35 10 12 192 120 201 120 5 0 9 5
9 10 0 6 3 9 8 8 4 -2 36 11 72 29 121 58 185 86 198 86 6 0 12 4 12 9 0 4 3
7 8 6 4 -1 59 15 122 35 115 36 256 70 340 82 25 3 52 8 60 10 57 15 480 28
480 15 0 -3 24 -5 53 -6 28 -1 72 -4 97 -8 25 -4 59 -8 75 -10 17 -1 39 -6 50
-9 11 -3 36 -9 55 -12 38 -6 236 -53 260 -61 8 -3 15 -4 15 -3 0 1 16 -5 35
-13 19 -8 38 -16 43 -16 4 -1 9 -3 12 -3 3 -1 10 -3 15 -4 6 -1 11 -3 13 -5 1
-1 9 -3 17 -5 26 -7 102 -35 146 -56 24 -10 46 -19 49 -19 15 0 249 -122 325
-169 212 -132 411 -305 545 -474 17 -21 35 -44 42 -51 6 -7 40 -55 75 -107 85
-125 153 -248 207 -374 12 -27 28 -61 36 -75 7 -14 14 -29 15 -35 4 -17 11
-39 20 -60 5 -11 14 -38 20 -60 6 -22 14 -47 17 -55 4 -8 7 -18 8 -22 2 -5 3
-9 5 -10 1 -2 3 -10 5 -18 2 -8 15 -58 28 -110 34 -127 71 -319 83 -425 2 -22
7 -60 9 -85 8 -67 14 -144 19 -252 2 -53 7 -102 11 -107 3 -6 2 -11 -4 -11 -6
0 -8 -6 -6 -12 11 -31 13 -68 4 -68 -6 0 -7 -5 -3 -11 8 -14 8 -97 -2 -299 -3
-80 -7 -166 -8 -192 0 -27 -3 -48 -6 -48 -3 0 -5 -19 -4 -43 0 -23 -2 -46 -5
-51 -2 -5 -5 -30 -7 -55 -2 -43 -7 -81 -20 -171 -3 -19 -7 -51 -9 -70 -2 -19
-6 -48 -9 -65 -2 -16 -14 -84 -25 -150 -20 -117 -25 -144 -36 -195 -3 -14 -8
-41 -11 -60 -3 -19 -8 -38 -10 -41 -2 -4 -6 -24 -10 -45 -3 -22 -17 -88 -31
-149 -14 -60 -26 -117 -28 -125 -2 -8 -4 -15 -5 -15 -1 0 -3 -7 -5 -15 -2 -8
-6 -24 -9 -35 -17 -71 -36 -145 -45 -172 -5 -18 -8 -33 -5 -33 3 0 0 -8 -5
-18 -6 -11 -12 -31 -15 -47 -5 -29 -20 -79 -88 -300 -21 -71 -46 -152 -54
-180 -9 -27 -19 -59 -24 -70 -5 -11 -15 -40 -21 -65 -7 -25 -17 -51 -22 -57
-8 -10 125 -13 656 -13 l666 0 16 58 c10 31 18 62 20 67 1 6 4 17 7 25 8 21
34 111 59 205 11 44 25 96 30 115 5 19 11 42 13 50 2 8 12 44 21 80 9 36 19
73 21 83 2 9 6 25 8 35 11 46 34 143 35 147 1 3 2 7 2 10 1 3 2 8 3 13 1 4 6
27 10 52 5 25 11 50 14 55 4 6 7 19 8 30 0 11 7 47 14 80 7 33 14 67 15 75 2
8 4 15 5 15 1 0 3 11 6 25 2 14 6 39 9 55 3 17 8 46 10 65 3 19 7 46 10 60 3
14 8 36 10 50 3 14 8 43 11 65 3 22 8 51 11 65 2 14 6 43 8 65 2 22 6 51 9 65
3 14 7 45 10 70 3 25 7 65 11 90 9 73 15 121 20 190 3 36 8 83 10 105 26 234
27 970 0 1125 -2 14 -6 54 -10 90 -3 36 -7 76 -10 90 -3 22 -10 69 -20 150 -2
14 -4 25 -5 25 -1 0 -3 14 -5 30 -1 17 -3 30 -5 30 -1 0 -4 14 -5 30 -2 17 -6
41 -9 55 -4 14 -9 41 -12 60 -3 19 -9 49 -14 65 -19 66 -54 211 -54 228 0 9
-3 17 -7 17 -4 0 -10 15 -13 33 -3 17 -8 43 -11 56 -2 14 -8 27 -12 30 -5 3
-9 15 -11 26 -2 11 -6 27 -9 35 -4 8 -7 18 -8 23 -2 4 -3 8 -5 10 -1 1 -3 9
-5 17 -4 19 -79 219 -99 262 -44 100 -59 134 -60 138 -5 27 -184 350 -246 445
-26 39 -94 140 -102 150 -5 6 -36 46 -70 90 -34 44 -65 82 -70 83 -4 2 -8 7
-8 11 0 27 -336 363 -458 458 -19 16 -52 42 -72 58 -21 17 -63 48 -94 70 -31
22 -56 43 -56 47 0 4 -3 7 -7 6 -7 -2 -61 29 -73 42 -6 6 -108 68 -165 100
-155 87 -201 112 -210 114 -5 2 -48 21 -95 44 -47 22 -114 52 -150 67 -36 14
-78 32 -95 39 -43 19 -109 40 -117 38 -5 -1 -8 3 -8 9 0 5 -5 7 -10 4 -6 -4
-17 -2 -24 4 -7 6 -22 12 -34 14 -12 2 -25 6 -28 10 -4 4 -17 7 -29 7 -12 0
-25 3 -29 7 -3 4 -12 8 -19 9 -7 2 -64 17 -127 34 -124 34 -142 38 -180 45
-14 2 -36 7 -50 10 -52 13 -157 33 -210 40 -30 4 -64 9 -75 10 -11 2 -47 6
-80 10 -33 4 -69 9 -80 12 -22 5 -551 13 -557 9z"/>
</g>
</svg>
